<?xml version="1.0" encoding="UTF-8"?>
<svg id="Layer_1" data-name="Layer 1" xmlns="http://www.w3.org/2000/svg" viewBox="0 0 501 701">
  <defs>
    <style>
      .cls-1 {
        fill: #f2eede;
      }

      .cls-2 {
        fill: #f16222;
      }

      .cls-3 {
        fill: #fde0d3;
        stroke: #231f20;
        stroke-miterlimit: 10;
      }
    </style>
  </defs>
  <rect class="cls-3" x=".5" y=".5" width="500" height="700"/>
  <g>
    <path class="cls-2" d="M435.5.5c.81.25,1.59.53,2.31.94,5.01,2.82,14.05,22.6,16.71,29.08,18.19,44.35,14.23,97.28-18.01,134.11,16.21,57.32,3.94,125.55-40.94,166.81,21.34,58.14,18.14,132.65-32.86,174.43,12.61,43.76,17.65,99.51-20.31,131.55,4.67,19.15,8.91,40.96.15,60.65-.23.52-.69.94-1.2,1.35-.55.44-1.19.78-1.85,1.09h-51l-.97-2.29c4.43-6.19,8.02-12.77,10.78-19.74l2.19-1.47c-3.33-1.42-2.99-12.35,0-14.5l-1.94,2.98c-33.85,13.75-79.25,22.21-111.32-.03-36.86-25.55-51.34-87.5-1.42-107.26,47.73-18.89,92.71-2.38,125.33,34.41.66.67,4.26,3.75,4.46,3.54,11.28-11.74,7.78-48.26,3.55-63.1l.73-1.64c-27.1,10.1-58.14,15.38-87.32,16.33-49.53,1.6-123.48-11.06-128.8-71.45-3.76-42.6,31.14-72.23,66.64-88.05-45.52-13.23-96.56-43.16-110.34-92.25-12.12-43.18,20.84-69.28,56.76-83.87,5.22-2.12,24.95-9.6,29.13-8.59.56.14,1.06.53,1.55.99.38-.64.05-1.3-1-2l-3.08.97c-46.07-18.25-121.88-62.06-113.36-120.5C39.9,15.39,137.93,5.52,192.24,6.98c82.33,2.21,173.27,32.86,219.99,104.61,13.67-39.96-5.46-83.08-38.24-107.54l-1.49-3.56h63Z"/>
    <path class="cls-1" d="M372.5.5c35.81,25.26,56.51,70.93,40.99,114-1.86.44-1.94-.63-2.83-1.66-6.03-6.98-11.03-15.99-17.65-23.35-43.74-48.6-111.26-72.14-175.13-78.87-57.29-6.03-180.36-.41-186.36,77.4-4.22,54.67,71.21,98.03,114.98,114.48,1.73.76,2.06,1.43,1,2-47.1,11.48-106.16,40.1-82.48,99.98,16.74,42.34,67.26,73.41,110.49,82.02.45,2.61-.37,1.55-1.43,2.09-20.52,10.43-35.63,17.62-51.09,35.9-29.54,34.94-20.9,84.2,20.3,104.72,52.22,26.02,123.38,17.86,177.23.75,5.23,22.72,9.09,47.77-4.03,68.53-1.46.4-1.66-.39-2.5-.97-5.81-3.99-13.49-13.72-20-19-31.12-25.24-67.49-34.03-106-19.05-41.78,16.25-39.19,59.75-14.45,90.5,30.94,38.46,86.86,29.64,126.98,12.52v14.5c0,5.95-8.95,18.12-12,23.5H.5V.5h372Z"/>
    <path class="cls-1" d="M435.5.5h65v700h-161c4.9-12.3,7.03-26.12,5.87-39.37-.46-5.3-5.6-21.98-4.92-24.92.12-.53,6.59-5.48,8.08-7.18,21.48-24.48,23.73-55.89,19.83-86.89-1.56-12.42-4.29-24.69-7.38-36.78,51.44-43.84,53.28-114.22,32.86-174.39,44.61-41.87,56.71-108.79,40.86-166.74,40-46.99,36.15-115.2.8-163.73Z"/>
    <path class="cls-1" d="M379.47,149.46c-15.24,5.54-30.99,9.58-46.95,12.56-84,15.73-171.32,18.92-238.55-41.5-55.3-49.69,35.33-65.41,70.99-67.07,72.25-3.35,169.58,19.65,209.56,85.52,1.14,1.88,6.04,8.95,4.95,10.48Z"/>
    <path class="cls-1" d="M110.85,267.85c25.99-28.27,100.65-24.53,134.64-14.85,37.28,10.62,73.59,30.15,92.99,65-10.12,7.31-21.36,13.4-33,17.98-55.51,21.86-147.14,17.84-187.96-31.02-9.05-10.83-18.26-24.52-6.68-37.12Z"/>
    <path class="cls-1" d="M303.47,488.46c-36.83,11.43-82.41,17.42-120.18,7.76-17.97-4.6-40.82-12.57-30.67-36.1,4.44-10.29,23.99-24.57,34.36-28.64,35.31-13.83,66.41,2.11,92.54,25.51,3.92,3.52,26.92,27.39,23.95,31.47Z"/>
    <path class="cls-1" d="M394.49,191.5c5.8,32.8-.4,69.74-21.51,96-1.46.39-1.63-.97-2.32-1.66-4.72-4.74-9.64-13.68-14.65-19.35-22.16-25.08-51.06-38.97-81.51-51.49,40.51-4.77,81.57-9.15,119.99-23.5Z"/>
    <path class="cls-1" d="M356.49,360.5c6.48,34.49,10.24,73.23-15.49,100.98-15.05-24.7-37.11-44.21-61.19-59.79l-18.31-10.19c24.83-2.02,49.14-8.37,71.68-18.83,7.99-3.71,15.33-8.51,23.32-12.18Z"/>
    <path class="cls-1" d="M276.5,624.49c-19.5,5.59-52.61,15.94-67.97-2.52-2.92-3.5-9.14-14.5-8.07-18.8.53-2.12,15.89-5.2,18.67-5.55,20.59-2.64,37.71,6.4,52.39,20.37.94.9,6.05,5.41,4.99,6.51Z"/>
  </g>
</svg>